<?xml version="1.0" encoding="UTF-8" standalone="no"?>
<!-- Created with Inkscape (http://www.inkscape.org/) -->

<svg
   xmlns:dc="http://purl.org/dc/elements/1.1/"
   xmlns:cc="http://creativecommons.org/ns#"
   xmlns:rdf="http://www.w3.org/1999/02/22-rdf-syntax-ns#"
   xmlns:svg="http://www.w3.org/2000/svg"
   xmlns="http://www.w3.org/2000/svg"
   xmlns:sodipodi="http://sodipodi.sourceforge.net/DTD/sodipodi-0.dtd"
   xmlns:inkscape="http://www.inkscape.org/namespaces/inkscape"
   width="1000"
   height="517.75665"
   id="svg4976"
   version="1.1"
   inkscape:version="0.48.2 r9819"
   sodipodi:docname="A.svg">
  <defs
     id="defs4978">
    <clipPath
       clipPathUnits="userSpaceOnUse"
       id="clipPath5397">
      <path
         inkscape:connector-curvature="0"
         d="m 262.558,320.52 93.486,0 0,48.358 -93.486,0 0,-48.358 z"
         id="path5399" />
    </clipPath>
  </defs>
  <sodipodi:namedview
     id="base"
     pagecolor="#ffffff"
     bordercolor="#666666"
     borderopacity="1.0"
     inkscape:pageopacity="0.0"
     inkscape:pageshadow="2"
     inkscape:zoom="0.57148438"
     inkscape:cx="459.67804"
     inkscape:cy="-58.42017"
     inkscape:document-units="px"
     inkscape:current-layer="layer1"
     showgrid="false"
     fit-margin-left="0.5"
     fit-margin-bottom="0.5"
     fit-margin-top="0.5"
     fit-margin-right="0.5"
     inkscape:window-width="1070"
     inkscape:window-height="1035"
     inkscape:window-x="837"
     inkscape:window-y="-21"
     inkscape:window-maximized="0" />
  <metadata
     id="metadata4981">
    <rdf:RDF>
      <cc:Work
         rdf:about="">
        <dc:format>image/svg+xml</dc:format>
        <dc:type
           rdf:resource="http://purl.org/dc/dcmitype/StillImage" />
        <dc:title></dc:title>
      </cc:Work>
    </rdf:RDF>
  </metadata>
  <g
     inkscape:label="Layer 1"
     inkscape:groupmode="layer"
     id="layer1"
     transform="translate(313.19215,207.66806)">
    <g
       id="g5389"
       transform="matrix(10.686189,0,0,-10.686189,-121.77586,235.36228)"
       style="fill:#045093;fill-opacity:1">
      <path
         d="m 0,0 0.941,0 0,-3.391 1.704,1.82 1.143,0 -1.633,-1.672 1.687,-2.435 -1.088,0 -1.237,1.773 -0.576,-0.599 0,-1.174 L 0,-5.678 0,0 z"
         style="fill:#045093;fill-opacity:1;fill-rule:nonzero;stroke:none"
         id="path5391"
         inkscape:connector-curvature="0" />
    </g>
    <g
       id="g5393"
       style="fill:#045093;fill-opacity:1"
       transform="matrix(10.686189,0,0,-10.686189,-3118.4419,3734.7259)">
      <g
         id="g5395"
         clip-path="url(#clipPath5397)"
         style="fill:#045093;fill-opacity:1">
        <g
           id="g5401"
           transform="translate(287.4091,323.5069)"
           style="fill:#045093;fill-opacity:1">
          <path
             d="m 0,0 c -0.241,0.093 -0.576,0.163 -0.941,0.163 -0.591,0 -0.941,-0.241 -0.941,-0.638 l 0,-0.015 c 0,-0.389 0.35,-0.607 0.793,-0.607 0.622,0 1.089,0.35 1.089,0.864 L 0,0 z m -0.023,-1.719 0,0.505 c -0.28,-0.334 -0.708,-0.591 -1.33,-0.591 -0.778,0 -1.463,0.444 -1.463,1.268 l 0,0.016 c 0,0.91 0.708,1.345 1.665,1.345 0.497,0 0.816,-0.07 1.135,-0.171 l 0,0.078 c 0,0.568 -0.357,0.879 -1.011,0.879 -0.459,0 -0.801,-0.101 -1.174,-0.257 L -2.458,2.108 C -2.007,2.31 -1.564,2.45 -0.895,2.45 0.319,2.45 0.91,1.812 0.91,0.716 l 0,-2.435 -0.933,0 z"
             style="fill:#045093;fill-opacity:1;fill-rule:nonzero;stroke:none"
             id="path5403"
             inkscape:connector-curvature="0" />
        </g>
        <g
           id="g5405"
           transform="translate(289.4391,325.8948)"
           style="fill:#045093;fill-opacity:1">
          <path
             d="m 0,0 0.941,0 0,-0.638 c 0.265,0.389 0.646,0.724 1.284,0.724 0.925,0 1.462,-0.623 1.462,-1.579 l 0,-2.614 -0.941,0 0,2.334 c 0,0.637 -0.319,1.003 -0.879,1.003 -0.544,0 -0.926,-0.381 -0.926,-1.019 l 0,-2.318 L 0,-4.107 0,0 z"
             style="fill:#045093;fill-opacity:1;fill-rule:nonzero;stroke:none"
             id="path5407"
             inkscape:connector-curvature="0" />
        </g>
        <g
           id="g5409"
           transform="translate(293.9274,322.3247)"
           style="fill:#045093;fill-opacity:1">
          <path
             d="M 0,0 0.42,0.638 C 0.863,0.303 1.346,0.132 1.766,0.132 c 0.404,0 0.638,0.171 0.638,0.443 l 0,0.016 C 2.404,0.91 1.968,1.019 1.486,1.167 0.879,1.338 0.202,1.587 0.202,2.372 l 0,0.016 c 0,0.778 0.646,1.252 1.463,1.252 0.513,0 1.073,-0.179 1.509,-0.467 L 2.8,2.504 C 2.404,2.746 1.983,2.894 1.641,2.894 1.276,2.894 1.066,2.722 1.066,2.481 l 0,-0.015 C 1.066,2.17 1.509,2.046 1.991,1.89 2.59,1.703 3.267,1.431 3.267,0.692 l 0,-0.015 C 3.267,-0.187 2.598,-0.615 1.742,-0.615 1.159,-0.615 0.513,-0.405 0,0"
             style="fill:#045093;fill-opacity:1;fill-rule:nonzero;stroke:none"
             id="path5411"
             inkscape:connector-curvature="0" />
        </g>
        <g
           id="g5413"
           transform="translate(300.6868,323.5069)"
           style="fill:#045093;fill-opacity:1">
          <path
             d="m 0,0 c -0.241,0.093 -0.576,0.163 -0.941,0.163 -0.591,0 -0.941,-0.241 -0.941,-0.638 l 0,-0.015 c 0,-0.389 0.35,-0.607 0.793,-0.607 0.622,0 1.089,0.35 1.089,0.864 L 0,0 z m -0.023,-1.719 0,0.505 c -0.28,-0.334 -0.708,-0.591 -1.33,-0.591 -0.778,0 -1.463,0.444 -1.463,1.268 l 0,0.016 c 0,0.91 0.708,1.345 1.665,1.345 0.498,0 0.817,-0.07 1.136,-0.171 l 0,0.078 c 0,0.568 -0.358,0.879 -1.012,0.879 -0.459,0 -0.801,-0.101 -1.174,-0.257 L -2.458,2.108 C -2.007,2.31 -1.563,2.45 -0.895,2.45 0.319,2.45 0.91,1.812 0.91,0.716 l 0,-2.435 -0.933,0 z"
             style="fill:#045093;fill-opacity:1;fill-rule:nonzero;stroke:none"
             id="path5415"
             inkscape:connector-curvature="0" />
        </g>
        <g
           id="g5417"
           transform="translate(302.3826,322.3247)"
           style="fill:#045093;fill-opacity:1">
          <path
             d="M 0,0 0.42,0.638 C 0.863,0.303 1.346,0.132 1.766,0.132 c 0.404,0 0.638,0.171 0.638,0.443 l 0,0.016 C 2.404,0.91 1.968,1.019 1.486,1.167 0.879,1.338 0.202,1.587 0.202,2.372 l 0,0.016 c 0,0.778 0.646,1.252 1.463,1.252 0.513,0 1.073,-0.179 1.509,-0.467 L 2.8,2.504 C 2.404,2.746 1.984,2.894 1.641,2.894 1.276,2.894 1.066,2.722 1.066,2.481 l 0,-0.015 C 1.066,2.17 1.509,2.046 1.991,1.89 2.59,1.703 3.267,1.431 3.267,0.692 l 0,-0.015 C 3.267,-0.187 2.598,-0.615 1.742,-0.615 1.159,-0.615 0.513,-0.405 0,0"
             style="fill:#045093;fill-opacity:1;fill-rule:nonzero;stroke:none"
             id="path5419"
             inkscape:connector-curvature="0" />
        </g>
        <g
           id="g5421"
           transform="translate(306.3807,323.8181)"
           style="fill:#045093;fill-opacity:1">
          <path
             d="m 0,0 0,0.015 c 0,1.167 0.902,2.147 2.131,2.147 0.778,0 1.26,-0.287 1.641,-0.708 L 3.189,0.824 C 2.901,1.128 2.598,1.338 2.123,1.338 1.439,1.338 0.941,0.747 0.941,0.031 l 0,-0.016 c 0,-0.731 0.506,-1.322 1.229,-1.322 0.443,0 0.77,0.21 1.066,0.514 L 3.804,-1.354 C 3.399,-1.805 2.925,-2.123 2.123,-2.123 0.902,-2.123 0,-1.167 0,0"
             style="fill:#045093;fill-opacity:1;fill-rule:nonzero;stroke:none"
             id="path5423"
             inkscape:connector-curvature="0" />
        </g>
        <path
           d="m 311.102,325.895 0.941,0 0,-4.107 -0.941,0 0,4.107 z m -0.039,1.524 1.011,0 0,-0.895 -1.011,0 0,0.895 z"
           style="fill:#045093;fill-opacity:1;fill-rule:nonzero;stroke:none"
           id="path5425"
           inkscape:connector-curvature="0" />
        <g
           id="g5427"
           transform="translate(313.4669,322.9235)"
           style="fill:#045093;fill-opacity:1">
          <path
             d="m 0,0 0,2.162 -0.521,0 0,0.809 0.521,0 0,1.128 0.941,0 0,-1.128 1.105,0 0,-0.809 -1.105,0 0,-2.014 c 0,-0.366 0.187,-0.514 0.506,-0.514 0.21,0 0.397,0.047 0.583,0.14 l 0,-0.77 C 1.797,-1.128 1.532,-1.206 1.182,-1.206 0.49,-1.206 0,-0.902 0,0"
             style="fill:#045093;fill-opacity:1;fill-rule:nonzero;stroke:none"
             id="path5429"
             inkscape:connector-curvature="0" />
        </g>
        <g
           id="g5431"
           transform="translate(316.3293,320.7688)"
           style="fill:#045093;fill-opacity:1">
          <path
             d="M 0,0 0.319,0.7 C 0.49,0.607 0.677,0.545 0.871,0.545 c 0.265,0 0.428,0.116 0.584,0.474 l -1.712,4.107 1.004,0 1.167,-3.049 1.065,3.049 0.98,0 L 2.326,0.902 C 1.999,0.062 1.634,-0.249 0.973,-0.249 0.576,-0.249 0.288,-0.155 0,0"
             style="fill:#045093;fill-opacity:1;fill-rule:nonzero;stroke:none"
             id="path5433"
             inkscape:connector-curvature="0" />
        </g>
        <path
           d="m 320.374,322.853 1.034,0 0,-1.066 -1.034,0 0,1.066 z"
           style="fill:#045093;fill-opacity:1;fill-rule:nonzero;stroke:none"
           id="path5435"
           inkscape:connector-curvature="0" />
        <g
           id="g5437"
           transform="translate(322.1477,323.8181)"
           style="fill:#045093;fill-opacity:1">
          <path
             d="m 0,0 0,0.015 c 0,1.167 0.902,2.147 2.131,2.147 0.778,0 1.26,-0.287 1.641,-0.708 L 3.189,0.824 C 2.901,1.128 2.598,1.338 2.123,1.338 1.439,1.338 0.941,0.747 0.941,0.031 l 0,-0.016 c 0,-0.731 0.506,-1.322 1.229,-1.322 0.444,0 0.77,0.21 1.066,0.514 L 3.804,-1.354 C 3.399,-1.805 2.925,-2.123 2.123,-2.123 0.902,-2.123 0,-1.167 0,0"
             style="fill:#045093;fill-opacity:1;fill-rule:nonzero;stroke:none"
             id="path5439"
             inkscape:connector-curvature="0" />
        </g>
        <g
           id="g5441"
           transform="translate(329.9115,323.8181)"
           style="fill:#045093;fill-opacity:1">
          <path
             d="m 0,0 0,0.015 c 0,0.724 -0.521,1.323 -1.26,1.323 -0.755,0 -1.237,-0.591 -1.237,-1.307 l 0,-0.016 c 0,-0.715 0.521,-1.322 1.252,-1.322 C -0.482,-1.307 0,-0.708 0,0 m -3.438,0 0,0.015 c 0,1.175 0.933,2.147 2.193,2.147 1.261,0 2.186,-0.956 2.186,-2.131 l 0,-0.016 c 0,-1.166 -0.933,-2.138 -2.201,-2.138 -1.252,0 -2.178,0.956 -2.178,2.123"
             style="fill:#045093;fill-opacity:1;fill-rule:nonzero;stroke:none"
             id="path5443"
             inkscape:connector-curvature="0" />
        </g>
        <g
           id="g5445"
           transform="translate(331.8096,325.8948)"
           style="fill:#045093;fill-opacity:1">
          <path
             d="m 0,0 0.941,0 0,-0.622 c 0.265,0.365 0.622,0.708 1.252,0.708 0.592,0 1.004,-0.288 1.222,-0.724 0.334,0.436 0.77,0.724 1.392,0.724 0.894,0 1.439,-0.568 1.439,-1.572 l 0,-2.621 -0.941,0 0,2.334 c 0,0.653 -0.303,1.003 -0.832,1.003 -0.514,0 -0.879,-0.358 -0.879,-1.019 l 0,-2.318 -0.942,0 0,2.341 c 0,0.638 -0.311,0.996 -0.832,0.996 -0.521,0 -0.879,-0.389 -0.879,-1.027 l 0,-2.31 L 0,-4.107 0,0 z"
             style="fill:#045093;fill-opacity:1;fill-rule:nonzero;stroke:none"
             id="path5447"
             inkscape:connector-curvature="0" />
        </g>
        <g
           id="g5449"
           transform="translate(279.5109,337.8545)"
           style="fill:#045093;fill-opacity:1">
          <path
             d="m 0,0 c 0,8.754 -12.246,8.012 -12.246,14.765 0,3.049 1.654,4.613 4.385,4.613 2.648,0 5.006,-2.656 5.751,-6.011 0,-0.086 0.496,-0.129 0.496,0.043 0,3.398 -0.123,6.011 -0.744,6.189 -1.324,0.392 -2.896,0.779 -5.214,0.779 -5.212,0 -8.688,-4.177 -8.688,-7.882 0,-8.667 12.619,-7.619 12.619,-15.501 0,-3.313 -2.317,-4.791 -5.089,-4.791 -3.599,0 -6.372,3.613 -7.323,8.054 0,0.087 -0.496,0.087 -0.496,-0.086 -0.083,-2.962 -0.456,-6.403 -0.249,-6.575 1.945,-1.528 5.255,-2.398 7.696,-2.398 C -3.269,-8.801 0,-4.01 0,0"
             style="fill:#045093;fill-opacity:1;fill-rule:nonzero;stroke:none"
             id="path5451"
             inkscape:connector-curvature="0" />
        </g>
        <g
           id="g5453"
           transform="translate(302.9813,358.9319)"
           style="fill:#045093;fill-opacity:1">
          <path
             d="m 0,0 c 0.037,0.129 -0.444,0.043 -0.444,0 -0.223,-1.178 -1.222,-1.656 -5.923,-1.656 l -11.365,0 c -4.738,0 -5.627,0.521 -5.812,1.656 0,0.043 -0.481,0.129 -0.444,0 0.111,-0.651 0.185,-1.479 0.185,-2.264 0,-1.263 -0.037,-4.532 -0.222,-5.447 0,-0.085 0.444,-0.042 0.444,0 0.518,2.748 1.48,4.705 6.293,4.705 l 3.184,0 0,-18.813 c 0,-6.705 -0.148,-6.662 -3.443,-7.055 -0.111,0 -0.185,-0.569 0,-0.52 1.555,0.214 3.85,0.301 5.96,0.301 1.518,0 4.035,-0.13 5.183,-0.301 0.185,-0.049 0.111,0.477 0,0.52 -3.443,0.302 -3.517,0.608 -3.517,7.055 l 0,18.813 3.109,0 c 4.924,0 5.738,-2.048 6.108,-4.705 0.037,-0.042 0.445,-0.085 0.445,0 -0.074,0.57 -0.112,3.27 -0.112,3.963 C -0.371,-2.264 -0.222,-1 0,0"
             style="fill:#045093;fill-opacity:1;fill-rule:nonzero;stroke:none"
             id="path5455"
             inkscape:connector-curvature="0" />
        </g>
        <g
           id="g5457"
           transform="translate(355.7497,331.8866)"
           style="fill:#045093;fill-opacity:1">
          <path
             d="m 0,0 c 0,1.436 -0.999,2.656 -2.332,2.656 -1.296,0 -2.333,-1.307 -2.333,-2.742 0,-1.441 1.037,-2.656 2.296,-2.656 C -0.999,-2.742 0,-1.436 0,0 m -14.437,18.028 c 0,-4.221 -1.851,-6.791 -6.479,-6.791 -0.666,0 -0.888,0.044 -1.48,0.087 l 0,7.183 c 0,3.312 0.111,5.575 0.333,6.446 0.333,0.043 0.814,0.086 1.221,0.086 3.962,0 6.405,-2.521 6.405,-7.011 M -4.96,-2.484 c -3.924,0.656 -8.663,7.797 -10.588,14.157 3.184,1.35 5.59,4.006 5.59,7.619 0,3.833 -3.221,6.667 -10.069,6.667 -5.516,0 -8.07,-0.135 -10.18,-0.699 -0.185,-0.043 -0.074,-0.522 0.037,-0.522 0.518,0.086 0.999,0.172 1.37,0.172 2.11,0 2.221,-1.478 2.221,-7.011 l 0,-12.672 c 0,-6.754 -0.074,-6.576 -3.813,-7.055 -0.075,0 -0.186,-0.57 0.037,-0.521 1.517,0.215 4.256,0.301 6.367,0.301 1.518,0 3.924,-0.129 5.034,-0.301 0.223,-0.049 0.149,0.478 0.037,0.521 -3.331,0.349 -3.479,0.522 -3.479,7.055 l 0,5.139 c 0.518,-0.043 0.888,-0.043 1.443,-0.043 0.63,0 0.889,0.043 1.481,0.087 2.517,-8.84 6.182,-13.415 14.512,-13.415 0.184,0 0.073,0.521 0,0.521 m -36.977,11.281 -7.071,0 3.75,10.844 3.321,-10.844 z m 10.642,-10.625 c -2.749,0.258 -3.571,2 -5.213,7.055 L -43.33,26.48 c -0.035,0.173 -0.429,0.173 -0.5,0 L -51.258,5.227 c -1.643,-4.662 -2.786,-6.883 -4.857,-7.055 -0.179,0 -0.179,-0.57 0,-0.521 1,0.128 2.071,0.301 3.322,0.301 1.106,0 2.392,-0.129 3.392,-0.301 0.178,-0.049 0.178,0.521 0,0.521 -1.643,0.172 -2.286,0.479 -2.286,1.521 0,1.178 0.5,2.92 1.429,5.534 l 0.928,2.655 7.678,0 0.857,-2.698 c 0.715,-2.178 1.286,-3.921 1.286,-5.227 0,-1.22 -0.714,-1.613 -2.356,-1.785 -0.179,0 -0.179,-0.57 0,-0.521 1.464,0.215 3.463,0.301 5.499,0.301 1.5,0 4.035,-0.129 5.071,-0.301 0.215,-0.049 0.178,0.521 0,0.521"
             style="fill:#045093;fill-opacity:1;fill-rule:nonzero;stroke:none"
             id="path5459"
             inkscape:connector-curvature="0" />
        </g>
        <g
           id="g5461"
           transform="translate(294.2893,359.7698)"
           style="fill:#045093;fill-opacity:1">
          <path
             d="m 0,0 c 0.054,-0.015 0.032,0.148 0,0.161 -0.948,0.135 -1.196,0.512 -2.499,2.315 l -1.82,2.518 1.099,1.521 c 1.066,1.468 1.432,1.952 2.52,2.06 0.022,0 0.054,0.161 -0.011,0.148 -0.237,-0.04 -0.786,-0.067 -1.12,-0.067 -0.463,0 -0.872,0.013 -1.206,0.067 C -3.102,8.736 -3.07,8.575 -3.048,8.575 -2.606,8.521 -2.434,8.413 -2.552,8.118 -2.703,7.74 -3.07,7.162 -3.533,6.515 L -5.213,4.187 -3.985,2.476 C -3.468,1.763 -2.886,0.874 -2.833,0.631 -2.768,0.322 -2.876,0.228 -3.35,0.161 -3.382,0.148 -3.403,-0.015 -3.35,0 -2.897,0.066 -2.456,0.093 -1.852,0.093 -1.4,0.093 -0.323,0.053 0,0"
             style="fill:#045093;fill-opacity:1;fill-rule:nonzero;stroke:none"
             id="path5463"
             inkscape:connector-curvature="0" />
        </g>
        <g
           id="g5465"
           transform="translate(289.8196,359.9308)"
           style="fill:#045093;fill-opacity:1">
          <path
             d="m 0,0 c -0.872,0.08 -0.851,0.201 -0.851,2.181 l 0,4.038 c 0,1.98 -0.021,2.101 0.851,2.195 0.022,0 0.054,0.161 -0.011,0.147 -0.323,-0.053 -0.883,-0.093 -1.324,-0.093 -0.614,0 -1.39,0.027 -1.831,0.093 C -3.231,8.575 -3.199,8.414 -3.177,8.414 -2.089,8.252 -2.068,8.32 -2.068,6.219 l 0,-4.038 c 0,-2.088 -0.021,-2.033 -1.109,-2.181 -0.022,0 -0.054,-0.176 0.011,-0.161 0.441,0.066 1.217,0.093 1.831,0.093 0.441,0 1.001,-0.04 1.324,-0.093 C 0.054,-0.176 0.022,-0.013 0,0"
             style="fill:#045093;fill-opacity:1;fill-rule:nonzero;stroke:none"
             id="path5467"
             inkscape:connector-curvature="0" />
        </g>
        <g
           id="g5469"
           transform="translate(298.3373,363.2152)"
           style="fill:#045093;fill-opacity:1">
          <path
             d="M 0,0 -2.186,0 -1.027,3.352 0,0 z m 3.29,-3.284 c -0.85,0.079 -1.104,0.618 -1.612,2.18 l -2.109,6.571 c -0.011,0.053 -0.132,0.053 -0.154,0 l -2.297,-6.571 c -0.507,-1.441 -0.861,-2.127 -1.501,-2.18 -0.055,0 -0.055,-0.177 0,-0.161 0.309,0.039 0.64,0.093 1.027,0.093 0.342,0 0.739,-0.04 1.049,-0.093 0.055,-0.016 0.055,0.161 0,0.161 -0.508,0.053 -0.707,0.148 -0.707,0.47 0,0.364 0.155,0.903 0.442,1.71 l 0.287,0.821 2.373,0 0.265,-0.834 C 0.574,-1.79 0.75,-2.329 0.75,-2.733 c 0,-0.377 -0.22,-0.498 -0.728,-0.551 -0.055,0 -0.055,-0.177 0,-0.161 0.453,0.066 1.071,0.093 1.7,0.093 0.464,0 1.248,-0.04 1.568,-0.093 0.066,-0.016 0.055,0.161 0,0.161"
             style="fill:#045093;fill-opacity:1;fill-rule:nonzero;stroke:none"
             id="path5471"
             inkscape:connector-curvature="0" />
        </g>
        <g
           id="g5473"
           transform="translate(309.5068,368.3445)"
           style="fill:#045093;fill-opacity:1">
          <path
             d="M 0,0 C 0.033,0 0.054,0.161 -0.011,0.148 -0.334,0.095 -0.625,0.055 -1.066,0.055 -1.68,0.055 -1.928,0.081 -2.369,0.148 -2.423,0.161 -2.402,0 -2.38,0 c 0.98,-0.148 1.012,-0.647 1.012,-2.194 l 0,-3.944 -4.577,6.193 c -0.506,0 -1.454,0.026 -1.896,0.093 C -7.894,0.161 -7.873,0 -7.852,0 c 0.399,-0.067 1.207,-1.225 1.207,-1.481 l 0,-4.752 c 0,-1.71 -0.129,-2.101 -1.013,-2.181 -0.021,0 -0.054,-0.176 0.011,-0.161 0.442,0.067 0.689,0.093 1.303,0.093 0.442,0 0.733,-0.04 1.056,-0.093 0.064,-0.015 0.032,0.161 0.011,0.161 -0.894,0.067 -1.013,0.444 -1.013,2.181 l 0,4.577 5.202,-7.027 c 0.044,-0.055 0.151,-0.055 0.151,-0.013 -0.032,0.552 -0.075,1.79 -0.075,2.463 l 0,4.039 c 0,1.682 0.129,2.086 1.012,2.194"
             style="fill:#045093;fill-opacity:1;fill-rule:nonzero;stroke:none"
             id="path5475"
             inkscape:connector-curvature="0" />
        </g>
        <g
           id="g5477"
           transform="translate(314.6232,362.3408)"
           style="fill:#045093;fill-opacity:1">
          <path
             d="m 0,0 c 0,2.706 -3.786,2.477 -3.786,4.564 0,0.943 0.512,1.426 1.356,1.426 0.819,0 1.548,-0.821 1.778,-1.858 0,-0.026 0.153,-0.04 0.153,0.013 0,1.051 -0.038,1.859 -0.23,1.913 -0.409,0.122 -0.895,0.241 -1.612,0.241 -1.611,0 -2.685,-1.291 -2.685,-2.436 0,-2.679 3.901,-2.355 3.901,-4.792 0,-1.024 -0.717,-1.481 -1.574,-1.481 -1.112,0 -1.969,1.117 -2.263,2.49 0,0.026 -0.154,0.026 -0.154,-0.027 -0.025,-0.916 -0.141,-1.979 -0.077,-2.032 0.602,-0.473 1.625,-0.742 2.38,-0.742 C -1.011,-2.721 0,-1.24 0,0"
             style="fill:#045093;fill-opacity:1;fill-rule:nonzero;stroke:none"
             id="path5479"
             inkscape:connector-curvature="0" />
        </g>
        <g
           id="g5481"
           transform="translate(318.6019,363.2152)"
           style="fill:#045093;fill-opacity:1">
          <path
             d="M 0,0 -2.186,0 -1.026,3.352 0,0 z m 3.29,-3.284 c -0.85,0.079 -1.104,0.618 -1.612,2.18 L -0.43,5.467 c -0.011,0.053 -0.133,0.053 -0.155,0 l -2.296,-6.571 c -0.508,-1.441 -0.861,-2.127 -1.501,-2.18 -0.056,0 -0.056,-0.177 0,-0.161 0.309,0.039 0.64,0.093 1.026,0.093 0.342,0 0.74,-0.04 1.049,-0.093 0.055,-0.016 0.055,0.161 0,0.161 -0.508,0.053 -0.707,0.148 -0.707,0.47 0,0.364 0.155,0.903 0.442,1.71 l 0.287,0.821 2.374,0 0.265,-0.834 c 0.22,-0.673 0.397,-1.212 0.397,-1.616 0,-0.377 -0.221,-0.498 -0.729,-0.551 -0.055,0 -0.055,-0.177 0,-0.161 0.453,0.066 1.071,0.093 1.7,0.093 0.464,0 1.248,-0.04 1.568,-0.093 0.066,-0.016 0.055,0.161 0,0.161"
             style="fill:#045093;fill-opacity:1;fill-rule:nonzero;stroke:none"
             id="path5483"
             inkscape:connector-curvature="0" />
        </g>
        <g
           id="g5485"
           transform="translate(327.1363,362.3408)"
           style="fill:#045093;fill-opacity:1">
          <path
             d="m 0,0 c 0,2.706 -3.786,2.477 -3.786,4.564 0,0.943 0.512,1.426 1.356,1.426 0.818,0 1.547,-0.821 1.777,-1.858 0,-0.026 0.154,-0.04 0.154,0.013 0,1.051 -0.038,1.859 -0.23,1.913 -0.409,0.122 -0.896,0.241 -1.612,0.241 -1.611,0 -2.686,-1.291 -2.686,-2.436 0,-2.679 3.901,-2.355 3.901,-4.792 0,-1.024 -0.716,-1.481 -1.573,-1.481 -1.112,0 -1.969,1.117 -2.264,2.49 0,0.026 -0.153,0.026 -0.153,-0.027 -0.026,-0.916 -0.141,-1.979 -0.077,-2.032 0.602,-0.473 1.625,-0.742 2.379,-0.742 C -1.011,-2.721 0,-1.24 0,0"
             style="fill:#045093;fill-opacity:1;fill-rule:nonzero;stroke:none"
             id="path5487"
             inkscape:connector-curvature="0" />
        </g>
        <g
           id="g5489"
           transform="translate(336.8487,362.5554)"
           style="fill:#045093;fill-opacity:1">
          <path
             d="m 0,0 c 0,0.055 -0.121,0.042 -0.132,0.013 -0.376,-1.399 -1.259,-2.664 -2.429,-2.664 -1.48,0 -2.893,1.856 -2.893,4.577 0,2.247 1.027,3.876 2.584,3.876 1.457,0 2.484,-1.399 2.66,-2.463 0,-0.027 0.133,-0.027 0.133,0.013 -0.033,0.821 -0.221,2.101 -0.298,2.168 -0.221,0.202 -1.071,0.593 -2.252,0.593 -2.462,0 -4.196,-2.262 -4.196,-4.712 0,-2.357 1.59,-4.363 4.096,-4.363 1.248,0 2.109,0.417 2.396,0.673 C -0.243,-2.207 -0.033,-0.821 0,0"
             style="fill:#045093;fill-opacity:1;fill-rule:nonzero;stroke:none"
             id="path5491"
             inkscape:connector-curvature="0" />
        </g>
        <g
           id="g5493"
           transform="translate(340.403,359.7698)"
           style="fill:#045093;fill-opacity:1">
          <path
             d="m 0,0 c 0.057,-0.015 0.034,0.148 0,0.161 -1.053,0.093 -1.064,0.188 -1.064,2.181 l 0,4.038 c 0,1.993 0.011,2.087 1.064,2.195 0.034,0 0.057,0.161 0,0.148 -0.343,-0.054 -1.11,-0.094 -1.579,-0.094 -0.653,0 -1.374,0.027 -1.843,0.094 C -3.49,8.736 -3.456,8.575 -3.433,8.575 -2.415,8.44 -2.358,8.453 -2.358,6.38 l 0,-4.038 c 0,-2.073 -0.057,-2.06 -1.075,-2.181 C -3.456,0.148 -3.49,-0.015 -3.422,0 -2.953,0.066 -2.232,0.093 -1.579,0.093 -1.11,0.093 -0.343,0.053 0,0"
             style="fill:#045093;fill-opacity:1;fill-rule:nonzero;stroke:none"
             id="path5495"
             inkscape:connector-curvature="0" />
        </g>
        <g
           id="g5497"
           transform="translate(347.7318,368.8564)"
           style="fill:#045093;fill-opacity:1">
          <path
             d="m 0,0 c 0.011,0.04 -0.129,0.013 -0.129,0 -0.065,-0.364 -0.356,-0.512 -1.723,-0.512 l -3.307,0 c -1.379,0 -1.637,0.161 -1.691,0.512 0,0.013 -0.14,0.04 -0.129,0 0.032,-0.201 0.054,-0.457 0.054,-0.7 0,-0.39 -0.011,-1.401 -0.065,-1.684 0,-0.026 0.129,-0.013 0.129,0 0.151,0.85 0.431,1.455 1.831,1.455 l 0.926,0 0,-5.816 c 0,-2.072 -0.043,-2.059 -1.001,-2.181 -0.032,0 -0.054,-0.176 0,-0.161 0.452,0.067 1.12,0.093 1.734,0.093 0.442,0 1.174,-0.04 1.508,-0.093 0.054,-0.015 0.032,0.148 0,0.161 -1.002,0.094 -1.023,0.188 -1.023,2.181 l 0,5.816 0.904,0 c 1.433,0 1.67,-0.633 1.777,-1.455 0.011,-0.013 0.13,-0.026 0.13,0 -0.022,0.177 -0.033,1.011 -0.033,1.225 0,0.459 0.043,0.85 0.108,1.159"
             style="fill:#045093;fill-opacity:1;fill-rule:nonzero;stroke:none"
             id="path5499"
             inkscape:connector-curvature="0" />
        </g>
        <g
           id="g5501"
           transform="translate(356.009,368.3445)"
           style="fill:#045093;fill-opacity:1">
          <path
             d="M 0,0 C 0.034,0 0.057,0.161 0,0.148 -0.355,0.095 -0.561,0.055 -1.03,0.055 -1.682,0.055 -1.922,0.081 -2.391,0.148 -2.449,0.161 -2.426,0 -2.391,0 c 0.938,-0.135 0.869,-0.309 -0.195,-2.247 l -0.927,-1.684 -0.721,1.373 C -5.264,-0.592 -5.527,-0.108 -4.52,0 -4.497,0 -4.463,0.161 -4.531,0.148 -4.875,0.095 -5.699,0.055 -6.168,0.055 -6.82,0.055 -7.564,0.081 -8.033,0.148 -8.09,0.161 -8.068,0 -8.033,0 c 0.949,-0.121 1.247,-0.47 2.334,-2.558 l 1.03,-1.978 0,-1.697 c 0,-2.073 -0.046,-2.046 -1.075,-2.181 -0.024,-0.013 -0.046,-0.176 0.011,-0.161 0.469,0.067 1.041,0.093 1.693,0.093 0.481,0 1.385,-0.04 1.728,-0.093 0.069,-0.015 0.035,0.148 0.012,0.161 -1.064,0.094 -1.076,0.202 -1.076,2.181 l 0,1.912 1.156,2.074 C -1.201,-0.431 -0.972,-0.093 0,0"
             style="fill:#045093;fill-opacity:1;fill-rule:nonzero;stroke:none"
             id="path5503"
             inkscape:connector-curvature="0" />
        </g>
        <g
           id="g5505"
           transform="translate(284.2945,362.1577)"
           style="fill:#045093;fill-opacity:1">
          <path
             d="m 0,0 c 0.012,0.042 -0.126,0.042 -0.126,0.028 -0.24,-1.05 -0.743,-2.006 -2.105,-2.006 l -0.515,0 c -0.515,0 -0.733,0.027 -0.733,1.83 l 0,2.141 0.996,0 c 0.813,0 1.201,-0.349 1.316,-1.104 0,-0.013 0.149,-0.026 0.137,0.014 -0.023,0.108 -0.023,0.862 -0.023,1.01 0,0.309 0.023,1.198 0.069,1.4 0.012,0.026 -0.126,0.013 -0.126,0 -0.149,-0.768 -0.4,-1.051 -1.373,-1.051 l -0.996,0 0,1.777 c 0,0.876 0.023,1.509 0.069,1.845 l 0.893,0 c 1.384,0 1.842,-0.781 1.945,-1.548 0.011,-0.013 0.137,-0.041 0.137,0 -0.011,0.107 -0.023,0.767 -0.023,0.901 0,0.298 0.035,0.889 0.069,1.077 -0.595,-0.053 -1.499,-0.093 -2.323,-0.093 -1.121,0 -2.403,0.027 -3.227,0.093 -0.057,0 -0.034,-0.148 -0.011,-0.148 1.155,-0.161 1.178,-0.093 1.178,-2.194 l 0,-4.038 c 0,-2.088 -0.023,-2.033 -1.178,-2.181 -0.023,0 -0.046,-0.161 0.011,-0.161 0.824,0.066 2.151,0.093 3.284,0.093 0.824,0 1.66,-0.067 2.072,-0.067 0.171,0 0.217,0.04 0.274,0.243 C -0.194,-1.764 -0.034,-0.523 0,0 m -6.378,-2.408 c 0.054,-0.015 0.032,0.161 0,0.161 -1.12,0.108 -1.099,0.174 -1.099,2.181 l 0,4.038 c 0,2.007 -0.021,2.073 1.099,2.194 0.032,0 0.054,0.162 0,0.148 C -6.701,6.261 -7.52,6.221 -7.972,6.221 -8.575,6.221 -9.157,6.248 -9.598,6.314 -9.663,6.328 -9.631,6.166 -9.609,6.166 -8.78,6.045 -8.693,6.032 -8.693,3.972 l 0,-1.818 -3.512,0 0,1.818 c 0,1.98 -0.021,2.101 0.851,2.194 0.022,0 0.054,0.162 -0.011,0.148 -0.323,-0.053 -0.883,-0.093 -1.324,-0.093 -0.614,0 -1.39,0.027 -1.831,0.093 -0.065,0.014 -0.033,-0.148 -0.011,-0.148 1.088,-0.161 1.109,-0.093 1.109,-2.194 l 0,-4.038 c 0,-2.088 -0.021,-2.033 -1.109,-2.181 -0.022,0 -0.054,-0.176 0.011,-0.161 0.441,0.066 1.217,0.093 1.831,0.093 0.441,0 1.001,-0.04 1.324,-0.093 0.065,-0.015 0.033,0.147 0.011,0.161 -0.872,0.08 -0.851,0.201 -0.851,2.181 l 0,1.937 3.512,0 0,-1.937 c 0,-2.06 -0.087,-2.073 -0.916,-2.181 -0.022,-0.014 -0.054,-0.176 0.011,-0.161 0.441,0.066 1.023,0.093 1.626,0.093 0.452,0 1.271,-0.04 1.594,-0.093 m -8.368,9.086 c 0.01,0.04 -0.13,0.014 -0.13,0 -0.064,-0.364 -0.355,-0.512 -1.723,-0.512 l -3.306,0 c -1.379,0 -1.638,0.162 -1.691,0.512 0,0.014 -0.14,0.04 -0.13,0 0.033,-0.201 0.054,-0.457 0.054,-0.699 0,-0.391 -0.011,-1.402 -0.064,-1.684 0,-0.027 0.129,-0.013 0.129,0 0.151,0.849 0.431,1.454 1.831,1.454 l 0.926,0 0,-5.815 c 0,-2.073 -0.043,-2.06 -1.002,-2.181 -0.032,0 -0.053,-0.176 0,-0.161 0.453,0.066 1.121,0.093 1.734,0.093 0.442,0 1.174,-0.04 1.508,-0.093 0.054,-0.015 0.033,0.147 0,0.161 -1.001,0.093 -1.023,0.188 -1.023,2.181 l 0,5.815 0.905,0 c 1.432,0 1.669,-0.633 1.777,-1.454 0.011,-0.013 0.129,-0.027 0.129,0 -0.021,0.176 -0.032,1.01 -0.032,1.225 0,0.459 0.043,0.849 0.108,1.158"
             style="fill:#045093;fill-opacity:1;fill-rule:nonzero;stroke:none"
             id="path5507"
             inkscape:connector-curvature="0" />
        </g>
      </g>
    </g>
  </g>
</svg>
