<svg xmlns="http://www.w3.org/2000/svg" viewBox="0 0 301.84 22.37"><defs><style>.cls-1{fill:#0793cf;}</style></defs><title>kansas-city-star</title><g id="Layer_2" data-name="Layer 2"><g id="kcm"><path class="cls-1" d="M16.8.05c0-.09-.31,0-.31,0-.16.88-.86,1.23-4.14,1.23H4.4C1.09,1.28.47.89.33.05.33,0,0,0,0,.05A12.28,12.28,0,0,1,.15,1.73,39.18,39.18,0,0,1,0,5.78c0,.06.31,0,.31,0,.36-2,1-3.5,4.4-3.5H6.93v14c0,5-.1,4.95-2.4,5.24-.08,0-.13.42,0,.39a32,32,0,0,1,4.17-.23,29.94,29.94,0,0,1,3.62.23c.13,0,.08-.36,0-.39-2.41-.22-2.46-.45-2.46-5.24v-14H12c3.45,0,4,1.52,4.28,3.5,0,0,.3.06.3,0-.05-.43-.07-2.43-.07-2.95A13.4,13.4,0,0,1,16.8.05ZM36.91,21.89c.13,0,.07-.39,0-.39-2.69-.26-2.64-.42-2.64-5.24V6.55c0-4.82-.05-5,2.64-5.27.07,0,.13-.39,0-.35a35.72,35.72,0,0,1-3.83.22A28,28,0,0,1,29.17.93c-.16,0-.08.35,0,.35,2,.29,2.2.33,2.2,5.27v4.37H22.9V6.55c0-4.76,0-5,2.05-5.27.05,0,.13-.39,0-.35a24.16,24.16,0,0,1-3.18.22,35.75,35.75,0,0,1-4.4-.22c-.16,0-.08.35,0,.35,2.62.39,2.67.23,2.67,5.27v9.71c0,5-.05,4.88-2.67,5.24,0,0-.13.42,0,.39a35.58,35.58,0,0,1,4.4-.23,22.43,22.43,0,0,1,3.18.23c.16,0,.08-.36,0-.39-2.1-.19-2.05-.48-2.05-5.24V11.6h8.44v4.66c0,4.95-.2,5-2.2,5.24-.05,0-.13.42,0,.39a27.89,27.89,0,0,1,3.91-.23,33.13,33.13,0,0,1,3.83.23ZM52.23,16.1c0-.1-.3-.1-.3-.07-.58,2.53-1.79,4.82-5.06,4.82H45.63c-1.23,0-1.76-.06-1.76-4.39V11.31h2.4c1.95,0,2.88.84,3.16,2.65,0,0,.36.07.33,0-.06-.26-.06-2.07-.06-2.43a30.6,30.6,0,0,1,.17-3.36c0-.07-.3,0-.3,0-.36,1.84-1,2.52-3.3,2.52h-2.4V6.39A39.19,39.19,0,0,1,44,2h2.14c3.33,0,4.43,1.88,4.68,3.72,0,0,.33.1.33,0,0-.26-.06-1.84-.06-2.17A22.89,22.89,0,0,1,51.3.93c-1.43.12-3.6.22-5.59.22C43,1.15,39.94,1.09,38,.93c-.14,0-.08.35,0,.35,2.78.39,2.84.23,2.84,5.27v9.71c0,5-.06,4.88-2.84,5.24,0,0-.11.39,0,.39,2-.16,5.17-.23,7.89-.23,2,0,4,.16,5,.16.41,0,.52-.09.66-.58a36,36,0,0,0,.74-5.14Zm25,5.79c.13,0,.08-.36,0-.39-2.28-.33-2.87-1.23-6-5.56L66.8,9.88l2.64-3.65C72,2.7,72.88,1.54,75.5,1.28c0,0,.13-.39,0-.35a23.32,23.32,0,0,1-2.69.16,20.44,20.44,0,0,1-2.9-.16c-.15,0-.08.35,0,.35,1.07.13,1.48.39,1.2,1.1a23.23,23.23,0,0,1-2.36,3.85l-4,5.6,2.95,4.11a24.39,24.39,0,0,1,2.77,4.43c.16.74-.1,1-1.24,1.13-.08,0-.13.42,0,.39a23.66,23.66,0,0,1,3.6-.23c1.08,0,3.67.1,4.45.23ZM66.44,21.5c-2.1-.19-2-.48-2-5.24V6.55c0-4.76,0-5,2-5.27,0,0,.13-.39,0-.35a24.16,24.16,0,0,1-3.18.22,35.65,35.65,0,0,1-4.4-.22c-.16,0-.08.35,0,.35,2.62.39,2.67.23,2.67,5.27v9.71c0,5,0,4.88-2.67,5.24,0,0-.13.42,0,.39a35.47,35.47,0,0,1,4.4-.23,22.43,22.43,0,0,1,3.18.23c.16,0,.08-.36,0-.39Z"/><path class="cls-1" d="M94.81,21.5c-2-.19-2.65-1.49-3.87-5.24L85.87.47c0-.13-.32-.13-.37,0L80,16.26c-1.22,3.46-2.07,5.11-3.61,5.24-.13,0-.13.42,0,.39a17.62,17.62,0,0,1,2.47-.23,15.63,15.63,0,0,1,2.52.23c.14,0,.14-.39,0-.39-1.22-.13-1.7-.36-1.7-1.13a14.65,14.65,0,0,1,1.06-4.11l.7-2h5.7l.64,2a14.54,14.54,0,0,1,.95,3.88c0,.91-.53,1.2-1.75,1.33-.13,0-.13.42,0,.39A30.22,30.22,0,0,1,91,21.66a31.36,31.36,0,0,1,3.77.23c.16,0,.13-.39,0-.39Zm-7.9-7.89H81.65l2.79-8.06Z"/><path class="cls-1" d="M113.75,1.28c.08,0,.13-.39,0-.35a14.79,14.79,0,0,1-2.53.22,17.35,17.35,0,0,1-3.14-.22c-.13,0-.07.35,0,.35,2.35.35,2.43,1.55,2.43,5.27V16l-11-14.88A41.41,41.41,0,0,1,94.91.93c-.13,0-.08.35,0,.35,1,.16,2.9,2.94,2.9,3.56V16.26c0,4.11-.31,5-2.43,5.24-.06,0-.13.42,0,.39a17.2,17.2,0,0,1,3.13-.23,13.87,13.87,0,0,1,2.54.23c.15,0,.08-.39,0-.39-2.15-.16-2.44-1.07-2.44-5.24v-11l12.5,16.89c.11.13.37.13.37,0-.08-1.33-.19-4.31-.19-5.92V6.55c0-4,.32-5,2.44-5.27Z"/><path class="cls-1" d="M126,15.71c0-6.5-9.1-6-9.1-11,0-2.27,1.23-3.43,3.26-3.43s3.72,2,4.28,4.47c0,.06.36.09.36,0,0-2.53-.09-4.47-.55-4.6a12.73,12.73,0,0,0-3.87-.58A6.3,6.3,0,0,0,114,6.42c0,6.44,9.38,5.67,9.38,11.52,0,2.46-1.72,3.56-3.78,3.56-2.68,0-4.74-2.69-5.44-6,0-.07-.37-.07-.37.06-.06,2.2-.34,4.76-.19,4.88a10.23,10.23,0,0,0,5.72,1.78A6.65,6.65,0,0,0,126,15.71Z"/><path class="cls-1" d="M143.51,21.5c-2-.19-2.65-1.49-3.87-5.24L134.57.47c0-.13-.32-.13-.37,0l-5.52,15.79c-1.22,3.46-2.07,5.11-3.61,5.24-.13,0-.13.42,0,.39a17.47,17.47,0,0,1,2.47-.23,15.63,15.63,0,0,1,2.52.23c.13,0,.13-.39,0-.39-1.22-.13-1.7-.36-1.7-1.13a14.3,14.3,0,0,1,1.06-4.11l.69-2h5.71l.63,2a14.63,14.63,0,0,1,1,3.88c0,.91-.53,1.2-1.75,1.33-.14,0-.14.42,0,.39a30.22,30.22,0,0,1,4.08-.23,31.36,31.36,0,0,1,3.77.23c.16,0,.13-.39,0-.39Zm-7.91-7.89h-5.25l2.79-8.06Z"/><path class="cls-1" d="M156.11,15.71c0-6.5-9.09-6-9.09-11,0-2.27,1.22-3.43,3.25-3.43s3.72,2,4.28,4.47c0,.06.36.09.36,0,0-2.53-.09-4.47-.55-4.6a12.73,12.73,0,0,0-3.87-.58A6.3,6.3,0,0,0,144,6.42c0,6.44,9.38,5.67,9.38,11.52,0,2.46-1.72,3.56-3.78,3.56-2.68,0-4.74-2.69-5.44-6,0-.07-.37-.07-.37.06-.06,2.2-.34,4.76-.19,4.88a10.23,10.23,0,0,0,5.72,1.78,6.65,6.65,0,0,0,6.76-6.53Zm23.34-.52c0-.13-.29-.1-.32,0-.9,3.36-3,6.4-5.83,6.4-3.56,0-7-4.46-7-11,0-5.4,2.46-9.31,6.2-9.31,3.51,0,6,3.36,6.4,5.92,0,.06.32.06.32,0a24.15,24.15,0,0,0-.72-5.21A9.26,9.26,0,0,0,173.14.5c-5.92,0-10.08,5.44-10.08,11.33,0,5.66,3.82,10.48,9.84,10.48a9.38,9.38,0,0,0,5.76-1.62,25.43,25.43,0,0,0,.79-5.5Zm8.54,6.7c.14,0,.09-.36,0-.39-2.53-.22-2.55-.45-2.55-5.24V6.55c0-4.78,0-5,2.55-5.27.09,0,.14-.39,0-.35a34.77,34.77,0,0,1-3.79.22,36,36,0,0,1-4.43-.22c-.16,0-.08.35,0,.35,2.45.33,2.59.29,2.59,5.27v9.71c0,5-.14,4.95-2.59,5.24-.05,0-.13.42,0,.39a35.77,35.77,0,0,1,4.43-.23,32.27,32.27,0,0,1,3.79.23ZM205.61.05c0-.09-.32,0-.32,0-.15.88-.85,1.23-4.14,1.23h-7.94c-3.31,0-3.94-.39-4.07-1.23,0,0-.33-.09-.31,0A10.82,10.82,0,0,1,189,1.73a39.18,39.18,0,0,1-.15,4.05c0,.06.31,0,.31,0,.36-2,1-3.5,4.4-3.5h2.22v14c0,5-.1,4.95-2.4,5.24-.08,0-.13.42,0,.39a31.86,31.86,0,0,1,4.17-.23,29.94,29.94,0,0,1,3.62.23c.13,0,.08-.36,0-.39-2.41-.22-2.46-.45-2.46-5.24v-14h2.17c3.45,0,4,1.52,4.27,3.5,0,0,.31.06.31,0,0-.43-.07-2.43-.07-2.95a13.4,13.4,0,0,1,.26-2.78ZM225.5,1.28c.08,0,.13-.39,0-.35a14.35,14.35,0,0,1-2.48.22,18.78,18.78,0,0,1-3.27-.22c-.14,0-.08.35,0,.35,2.25.33,2.09.74-.47,5.4l-2.22,4.05-1.74-3.3c-2.47-4.73-3.11-5.89-.69-6.15.06,0,.14-.39,0-.35a37.92,37.92,0,0,1-3.94.22,36.92,36.92,0,0,1-4.48-.22c-.14,0-.08.35,0,.35,2.28.29,3,1.13,5.61,6.15l2.48,4.75v4.08c0,5-.11,4.91-2.59,5.24-.05,0-.11.42,0,.39a29.86,29.86,0,0,1,4.07-.23,38.79,38.79,0,0,1,4.15.23c.17,0,.08-.36,0-.39-2.56-.22-2.59-.48-2.59-5.24v-4.6l2.78-5c2.45-4.37,3-5.17,5.34-5.4Zm19.7,14.43c0-6.5-9.09-6-9.09-11,0-2.27,1.22-3.43,3.25-3.43s3.72,2,4.27,4.47c0,.06.37.09.37,0,0-2.53-.09-4.47-.55-4.6a12.73,12.73,0,0,0-3.87-.58,6.3,6.3,0,0,0-6.46,5.85c0,6.44,9.38,5.67,9.38,11.52,0,2.46-1.72,3.56-3.78,3.56-2.68,0-4.74-2.69-5.44-6,0-.07-.37-.07-.37.06-.06,2.2-.34,4.76-.19,4.88a10.23,10.23,0,0,0,5.72,1.78,6.65,6.65,0,0,0,6.76-6.53Z"/><path class="cls-1" d="M262.64.05c0-.09-.33,0-.33,0-.17.88-.91,1.23-4.4,1.23h-8.45c-3.51,0-4.18-.39-4.31-1.23,0,0-.36-.09-.33,0A10.82,10.82,0,0,1,245,1.73a36.42,36.42,0,0,1-.16,4.05c0,.06.33,0,.33,0,.39-2,1.1-3.5,4.67-3.5h2.37v14c0,5-.11,4.95-2.56,5.24-.08,0-.14.42,0,.39a36.1,36.1,0,0,1,4.43-.23,33.79,33.79,0,0,1,3.85.23c.14,0,.08-.36,0-.39-2.56-.22-2.61-.45-2.61-5.24v-14h2.31c3.65,0,4.26,1.52,4.53,3.5,0,0,.34.06.34,0-.06-.43-.09-2.43-.09-2.95a12.61,12.61,0,0,1,.28-2.78Z"/><path class="cls-1" d="M278.59,21.5c-2-.19-2.65-1.49-3.87-5.24L269.65.47c0-.13-.32-.13-.37,0l-5.52,15.79c-1.22,3.46-2.07,5.11-3.61,5.24-.13,0-.13.42,0,.39a17.47,17.47,0,0,1,2.47-.23,15.63,15.63,0,0,1,2.52.23c.13,0,.13-.39,0-.39-1.22-.13-1.7-.36-1.7-1.13a14.3,14.3,0,0,1,1.06-4.11l.69-2h5.71l.63,2a14.63,14.63,0,0,1,1,3.88c0,.91-.53,1.2-1.75,1.33-.14,0-.14.42,0,.39a30.12,30.12,0,0,1,4.08-.23,31.36,31.36,0,0,1,3.77.23c.16,0,.13-.39,0-.39Zm-7.91-7.89h-5.25l2.79-8.06ZM298.15,22c-2.91-.49-6.43-5.8-7.86-10.52a6.2,6.2,0,0,0,4.15-5.66C294.44,3,292.05.86,287,.86c-4.1,0-6,.1-7.56.52-.14,0-.06.39,0,.39a6.46,6.46,0,0,1,1-.14c1.57,0,1.65,1.1,1.65,5.21v9.42c0,5,0,4.88-2.83,5.24-.06,0-.14.42,0,.39a41.1,41.1,0,0,1,4.73-.23,31.65,31.65,0,0,1,3.74.23c.16,0,.11-.36,0-.39-2.47-.26-2.58-.39-2.58-5.24V12.44c.38,0,.66,0,1.07,0s.66,0,1.1-.06c1.87,6.56,4.59,10,10.78,10,.14,0,.06-.38,0-.38Zm-7-15.24c0,3.13-1.37,5-4.81,5-.5,0-.66,0-1.1-.06V6.39a26.58,26.58,0,0,1,.25-4.78,6.13,6.13,0,0,1,.91-.07c2.94,0,4.75,1.87,4.75,5.21Zm10.73,13.39a1.86,1.86,0,0,0-1.74-2,1.94,1.94,0,0,0-1.73,2,1.87,1.87,0,0,0,1.71,2,1.93,1.93,0,0,0,1.76-2Z"/></g></g></svg>