<?xml version="1.0" encoding="utf-8"?>
<!-- Generator: Adobe Illustrator 16.0.0, SVG Export Plug-In . SVG Version: 6.00 Build 0)  -->
<!DOCTYPE svg PUBLIC "-//W3C//DTD SVG 1.1//EN" "http://www.w3.org/Graphics/SVG/1.1/DTD/svg11.dtd">
<svg version="1.1" id="Layer_1" xmlns="http://www.w3.org/2000/svg" xmlns:xlink="http://www.w3.org/1999/xlink" x="0px" y="0px"
	 width="474.061px" height="71.725px" viewBox="0 0 474.061 71.725" enable-background="new 0 0 474.061 71.725"
	 xml:space="preserve">
<g id="twp_x5F_full">
	<g enable-background="new    ">
		<path fill="#231F20" d="M31.536,22.732v25.039c3.383-1.827,5.752-5.008,6.902-8.595l0.271,0.136
			c-0.745,8.933-6.835,17.865-16.309,17.865c-9.542,0-16.58-7.105-16.58-18.475c0-8.526,5.549-13.873,12.655-18.678
			c-1.015-0.271-2.098-0.406-3.181-0.406c-4.873,0-7.715,3.316-7.715,6.7H7.173c-0.068-0.474-0.068-0.947-0.068-1.421
			c0-6.023,3.181-13.332,10.896-13.332c4.94,0,8.73,4.534,14.482,4.534c2.301,0,5.143-1.083,6.293-3.587h0.203
			C38.912,16.912,37.559,21.446,31.536,22.732z M35.19,48.38c-3.384,3.586-7.038,6.632-11.775,6.632
			c-8.797,0-15.564-6.903-15.564-16.919c0-5.887,2.436-9.067,5.143-12.79h-0.271c-1.692,1.692-6.158,5.955-6.158,13.196
			c0,11.099,6.97,17.934,16.106,17.934c6.361,0,10.692-4.398,12.655-7.985L35.19,48.38z M37.896,15.559
			c-1.15,2.165-3.586,4.939-8.526,4.939c-4.94,0-9.474-3.384-13.467-3.384c-3.655,0-6.158,2.437-7.106,4.264l0.068,0.136
			c1.286-1.286,3.248-2.572,6.429-2.572c5.278,0,8.662,3.249,14.008,3.249c5.685,0,8.256-3.723,8.73-6.564L37.896,15.559z
			 M19.083,20.228c-3.451,3.587-6.632,7.512-6.632,15.159c0,4.195,1.421,8.526,4.602,11.233l1.962-1.016V27.469l-1.827,0.947
			l-0.338-0.677l9.474-5.144C23.753,22.055,21.452,20.905,19.083,20.228z M30.791,22.867c-0.474,0.067-0.947,0.067-1.489,0.067
			c-0.947,0-1.827-0.067-2.707-0.271v19.76L17.73,47.23c1.827,1.353,4.06,2.165,6.902,2.165c2.301,0,4.331-0.474,6.158-1.286V22.867
			z M21.046,26.319l-1.286,0.744v18.137l1.286-0.677V26.319z M59.958,28.89v23.415c0,6.496-5.752,10.896-12.181,12.181l-0.135-0.271
			c3.181-1.557,5.008-4.737,5.008-8.121V31.867l-3.654-3.315l-1.421,1.556v18.881l2.03,1.827v0.136l-5.481,5.955l-6.293-5.752
			v-0.271l2.436-2.572V18.401l7.173-7.646l0.135,0.067v18.136l5.888-6.361l6.158,5.55l1.15-1.219l0.542,0.475L59.958,28.89z
			 M41.01,51.019v-0.135l1.421-1.422V17.25L41.01,18.74v30.046l-2.166,2.166v0.135l5.278,4.737l0.947-1.083L41.01,51.019z
			 M54.815,30.784l-4.399-3.789l-0.947,1.015l3.925,3.52v24.362c0,1.624-0.338,3.315-0.947,4.263l0.068,0.068
			c1.692-1.219,2.301-3.046,2.301-5.414V30.784z M70.718,42.492v3.451l6.564,5.143l3.79-4.06l0.542,0.541l-8.797,9.406l-8.933-7.173
			l-1.353,1.421l-0.542-0.541l1.557-1.624V31.935l12.79-9.339l6.7,10.828L70.718,42.492z M65.71,48.448V31.258l-1.421,1.016v16.851
			l8.392,6.835l1.083-1.15L65.71,48.448z M70.854,27.604l-0.136,0.068v13.873l6.023-4.399L70.854,27.604z M72.613,26.251
			l-1.218,0.879l5.956,9.542l1.218-0.88L72.613,26.251z"/>
		<path fill="#231F20" d="M127.147,56.906l-9.407-8.121l-7.173,8.121l-9.745-8.392V35.251h-1.895c-1.692,0-2.571,1.083-2.978,2.368
			h-0.203c-0.135-0.541-0.338-1.488-0.338-2.571c0-1.76,0.474-6.361,5.414-6.361v-11.64c0-2.233-2.639-3.113-2.639-6.091
			c0-3.856,3.654-7.646,10.354-10.016l0.271,0.203c-2.436,1.422-3.722,2.775-3.722,5.685c0,4.467,4.331,3.316,4.331,10.354v2.707
			l7.918-8.324l8.324,8.188l7.85-8.188l7.579,7.444v25.039L127.147,56.906z M102.988,47.432V33.154h-3.79
			c-1.963,0-2.842,1.285-2.978,2.436l0.067,0.068c0.677-0.744,1.354-1.15,2.91-1.15h2.368v13.67l8.933,7.715l1.015-1.219
			L102.988,47.432z M102.988,16.37c0-2.774-2.436-3.722-2.436-5.481c0-2.437,0.947-4.466,2.436-6.361l-0.135-0.067
			c-2.03,1.557-3.925,4.061-3.925,6.496c0,2.437,2.639,3.587,2.639,5.753v11.978h1.421V16.37z M117.267,23.138l-5.143-5.008
			l-2.707,2.774v23.956l6.158,5.211l1.692-1.895V23.138z M119.432,47.297V22.191l-5.752-5.685l-1.083,1.083l5.414,5.21v25.242
			l9.136,7.918l1.083-1.016L119.432,47.297z M132.561,22.258l-4.263-4.061l-2.436,2.504v24.092l6.632,5.819l0.067-0.067V22.258z
			 M134.726,21.311l-4.94-4.805l-1.015,1.083l4.534,4.331v28.287l1.421-1.354V21.311z"/>
		<path fill="#231F20" d="M163.481,56.906l-6.429-5.82l-5.752,5.82l-7.038-6.226l-0.948,1.015l-0.541-0.541l1.218-1.286V31.733
			l12.723-9.204l7.309,5.685l1.286-1.354l0.542,0.542l-1.489,1.556v18.746l3.586,3.315l1.151-1.218l0.541,0.474L163.481,56.906z
			 M146.157,49.395V31.123l-1.421,1.015v17.934l6.497,5.82l1.083-1.083L146.157,49.395z M157.052,31.597l-5.549-4.331l-0.203,0.136
			v19.692l4.602,3.992l1.15-1.15V31.597z M159.218,50.004V30.582l-5.752-4.67l-1.353,0.947l5.684,4.467v19.354l5.685,5.143
			l1.015-1.083L159.218,50.004z M183.174,34.845h6.97v14.482l-10.76,7.579c-1.421-1.624-3.452-2.774-5.955-2.774
			c-2.03,0-3.655,0.677-5.82,2.504l-0.338-0.136l9.204-13.399h-5.685V30.514l11.302-7.85c1.353,1.083,2.368,1.691,4.128,1.691
			c1.354,0,3.316-0.271,4.805-1.488l0.271,0.135L183.174,34.845z M175.595,52.169c-1.963,0-3.519,0.677-4.873,1.624v0.136
			c1.083-0.474,2.166-0.609,3.181-0.609c1.556,0,3.993,0.745,5.617,2.64l1.557-1.15C179.79,53.32,178.234,52.169,175.595,52.169z
			 M182.835,40.8h-3.79l-7.918,11.438l0.068,0.135c1.962-1.421,3.857-2.368,6.158-2.368c2.03,0,4.128,0.947,5.414,2.571l0.068-0.067
			V40.8z M172.955,40.8V29.906l-1.421,1.015v11.369h5.481l1.083-1.489H172.955z M187.099,27.536
			c-1.421,1.016-2.233,1.557-4.602,1.557c-1.354,0-2.978-0.609-4.263-1.963l-0.135,0.068v9.88h2.571l6.497-9.475L187.099,27.536z
			 M183.851,26.927c-1.218,0-2.774-0.608-3.79-1.962l-1.692,1.15c1.286,1.557,2.504,2.233,4.398,2.233
			c1.218,0,2.978-0.339,4.805-1.896l0.067-0.202C186.49,26.725,185.069,26.927,183.851,26.927z M185.001,38.568h-4.399l-1.015,1.421
			h3.993v13.128l1.421-1.015V38.568z M213.491,28.89v23.415c0,6.496-5.752,10.896-12.181,12.181l-0.135-0.271
			c3.181-1.557,5.008-4.737,5.008-8.121V31.867l-3.654-3.315l-1.421,1.556v18.881l2.03,1.827v0.136l-5.481,5.955l-6.293-5.752
			v-0.271l2.436-2.572V18.401l7.173-7.646l0.135,0.067v18.136l5.888-6.361l6.158,5.55l1.15-1.219l0.542,0.475L213.491,28.89z
			 M194.543,51.019v-0.135l1.421-1.422V17.25l-1.421,1.489v30.046l-2.166,2.166v0.135l5.278,4.737l0.947-1.083L194.543,51.019z
			 M208.348,30.784l-4.399-3.789l-0.947,1.015l3.925,3.52v24.362c0,1.624-0.338,3.315-0.947,4.263l0.068,0.068
			c1.692-1.219,2.301-3.046,2.301-5.414V30.784z M225.808,56.906l-5.82-5.346l-1.354,1.421l-0.542-0.542l1.557-1.691V31.191
			l-2.842-2.707l-1.083,1.219l-0.542-0.542l6.09-6.632l5.414,4.873l1.354-1.489l0.609,0.474l-1.692,1.827v19.761l3.249,3.045
			l1.489-1.557l0.541,0.542L225.808,56.906z M221.815,50.275V30.108l-3.519-3.248l-0.947,1.083l3.045,2.91v20.099l5.414,4.872
			l1.015-1.083L221.815,50.275z M223.845,21.988l-5.549-5.075l5.076-5.414l5.549,5.075L223.845,21.988z M220.394,15.829
			l-1.015,1.015l4.398,4.128l1.015-1.15L220.394,15.829z"/>
		<path fill="#231F20" d="M254.423,56.906l-5.888-5.346V31.8l-3.587-3.248l-1.895,2.03v18.271l2.098,1.962v0.271l-5.549,5.82
			l-6.294-5.752v-0.203l2.437-2.571V31.326l-3.181-2.91l-1.286,1.421l-0.541-0.541l6.158-6.7l6.158,5.482v1.353l6.429-6.835
			l6.022,5.414l1.354-1.421l0.609,0.541l-1.624,1.692v19.354l3.045,2.842l1.489-1.624l0.541,0.541L254.423,56.906z M236.557,51.019
			v-0.135c0,0.135,1.354-1.354,1.354-1.354v-19.22l-3.858-3.519l-0.948,1.015l3.384,3.113v17.865l-2.098,2.166v0.135l5.211,4.737
			l1.082-1.15L236.557,51.019z M250.7,50.478V30.65l-4.195-3.79l-1.083,1.15l3.857,3.451v19.693l5.075,4.737l1.083-1.151
			L250.7,50.478z M273.506,69.087c-2.232-2.436-3.789-3.451-5.887-3.451c-2.233,0-4.805,0.88-7.444,2.301l-0.203-0.202l9.339-10.828
			l-6.632-5.278l-1.286,1.354l-0.541-0.474l1.488-1.624V31.733l12.858-9.204l7.173,5.685l1.219-1.354l0.541,0.542l-1.421,1.556
			v23.145c0,3.519,1.962,3.384,1.962,6.022C284.672,61.17,280.273,64.012,273.506,69.087z M264.506,50.342V31.191l-1.421,1.016
			v18.745l6.699,5.414l1.016-1.219L264.506,50.342z M269.243,63.877c-2.233,0-4.264,0.677-6.158,1.962v0.136
			c1.218-0.474,2.571-1.083,4.872-1.083c2.098,0,3.857,1.15,5.617,3.181l1.354-1.083C273.235,65.028,271.205,63.877,269.243,63.877z
			 M277.499,57.38c-1.691-1.083-2.098-2.233-2.098-5.143v-1.219l-11.234,12.993l0.068,0.067c2.165-1.285,4.128-2.232,7.309-2.232
			c2.707,0,4.534,1.082,6.632,2.842c1.286-1.083,2.165-2.165,2.165-3.857C280.341,59.478,279.19,58.463,277.499,57.38z
			 M275.401,31.597l-5.617-4.398l-0.136,0.135v20.775l4.332,3.384l1.421-1.624V31.597z M279.529,56.433
			c-1.76-1.354-1.963-2.504-1.963-5.414V30.447l-5.685-4.602l-1.285,0.88l5.549,4.398v20.843c0,2.91,0.136,3.723,1.963,4.94
			c1.624,1.083,2.909,2.233,2.909,3.79c0,0.405-0.067,1.082-0.067,1.082l0.067,0.068c0.339-0.339,0.745-0.88,0.745-1.76
			C281.763,58.598,281.018,57.583,279.529,56.433z M295.771,56.906l-6.226-4.872l-1.286,1.421l-0.541-0.542l1.488-1.624V27.604
			h-3.925l-0.136-0.135l2.369-3.52h1.691v-4.533l7.174-7.647l0.135,0.136v12.045h5.414l0.136,0.136l-2.369,3.519h-3.181v20.505
			l3.723,2.843l1.421-1.557l0.541,0.541L295.771,56.906z M291.372,18.265l-1.421,1.557v4.128h1.421V18.265z M291.372,50.613V27.604
			h-1.421v23.821l5.752,4.467l1.015-1.083L291.372,50.613z M324.328,29.567v18.948l-11.437,8.459l-8.595-6.496l-1.015,1.15
			l-0.541-0.542l1.218-1.353V31.191l11.979-8.595l7.985,6.227l1.285-1.354l0.542,0.541L324.328,29.567z M306.125,49.057V30.582
			l-1.422,1.015v18.204l8.121,6.226l1.286-0.947L306.125,49.057z M317.02,31.8l-5.685-4.467l-0.067,0.068v20.166l5.752,4.331V31.8z
			 M319.186,30.582l-6.294-4.873l-1.285,0.947l6.158,4.737V52.44l1.421-1.082V30.582z M350.18,56.906l-5.888-5.346V31.8
			l-3.587-3.248l-1.895,2.03v18.271l2.098,1.962v0.271l-5.549,5.82l-6.294-5.752v-0.203l2.437-2.571V31.326l-3.181-2.91
			l-1.286,1.421l-0.541-0.541l6.158-6.7l6.158,5.482v1.353l6.429-6.835l6.023,5.414l1.353-1.421l0.609,0.541l-1.624,1.692v19.354
			l3.045,2.842l1.489-1.624l0.541,0.541L350.18,56.906z M332.313,51.019v-0.135c0,0.135,1.354-1.354,1.354-1.354v-19.22
			l-3.857-3.519l-0.947,1.015l3.384,3.113v17.865l-2.098,2.166v0.135l5.211,4.737l1.083-1.15L332.313,51.019z M346.457,50.478V30.65
			l-4.195-3.79l-1.083,1.15l3.857,3.451v19.693l5.075,4.737l1.083-1.151L346.457,50.478z"/>
		<path fill="#231F20" d="M391.986,56.906c-1.895-2.03-2.571-2.707-4.805-3.316v1.489v11.775l-0.136,0.067l-2.707-2.437l-7.85,7.241
			l-0.136-0.067V53.455c-2.368,0.541-4.872,1.76-7.309,4.195l-0.135-0.067c0.474-5.211,3.045-9.068,7.443-10.557V33.83h-1.421
			c-1.962,0-3.045,1.015-3.992,2.842h-0.203c-0.203-0.608-0.339-1.557-0.339-3.112c0-2.843,2.098-5.82,5.55-5.82h0.405v-7.309
			l-2.774-2.504l-1.354,1.354l-0.474-0.474l6.835-7.241l6.361,5.82v6.158l1.489-1.624v-7.783h0.744v7.106l9-9.678l7.647,6.971
			v29.438L391.986,56.906z M376.354,50.951c-2.774,0.541-4.736,2.233-6.022,4.466l0.067,0.136c1.896-1.624,3.654-2.368,5.955-2.91
			V50.951z M378.52,31.53h-3.722c-2.572,0-3.587,1.624-3.654,3.519l0.067,0.067c0.812-1.354,1.624-1.827,3.248-2.029h2.64v36.881
			l1.421-1.354V31.53z M378.52,19.348l-3.384-3.112l-1.083,1.15l3.046,2.706v7.647h1.421V19.348z M386.438,23.205l-1.489,1.557
			v39.183l1.489,1.354V23.205z M395.303,21.649l-3.993-3.654l-4.128,4.467v23.82c3.519,0.339,5.955,1.354,8.053,3.654l0.068-0.067
			V21.649z M387.182,50.951v1.76c2.301,0.541,3.248,1.218,4.872,3.112l1.557-1.218C391.986,52.575,390.362,51.358,387.182,50.951z
			 M397.468,20.567l-4.602-4.264l-1.083,1.15l4.264,3.925v31.468l1.421-1.083V20.567z M427.447,29.567v18.948l-11.438,8.459
			l-8.594-6.496l-1.016,1.15l-0.541-0.542l1.218-1.353V31.191l11.979-8.595l7.985,6.227l1.285-1.354l0.542,0.541L427.447,29.567z
			 M409.243,49.057V30.582l-1.422,1.015v18.204l8.121,6.226l1.286-0.947L409.243,49.057z M420.138,31.8l-5.684-4.467l-0.068,0.068
			v20.166l5.752,4.331V31.8z M422.304,30.582l-6.294-4.873l-1.285,0.947l6.158,4.737V52.44l1.421-1.082V30.582z M443.146,34.845
			h6.971v14.482l-10.76,7.579c-1.421-1.624-3.451-2.774-5.955-2.774c-2.03,0-3.654,0.677-5.82,2.504l-0.338-0.136l9.203-13.399
			h-5.685V30.514l11.302-7.85c1.354,1.083,2.368,1.691,4.128,1.691c1.354,0,3.315-0.271,4.805-1.488l0.271,0.135L443.146,34.845z
			 M435.567,52.169c-1.962,0-3.519,0.677-4.872,1.624v0.136c1.083-0.474,2.165-0.609,3.181-0.609c1.557,0,3.992,0.745,5.616,2.64
			l1.557-1.15C439.764,53.32,438.207,52.169,435.567,52.169z M442.809,40.8h-3.79l-7.917,11.438l0.067,0.135
			c1.962-1.421,3.857-2.368,6.158-2.368c2.03,0,4.128,0.947,5.414,2.571l0.067-0.067V40.8z M432.929,40.8V29.906l-1.422,1.015
			v11.369h5.481l1.083-1.489H432.929z M447.072,27.536c-1.422,1.016-2.233,1.557-4.603,1.557c-1.354,0-2.978-0.609-4.263-1.963
			l-0.136,0.068v9.88h2.571l6.497-9.475L447.072,27.536z M443.823,26.927c-1.218,0-2.774-0.608-3.789-1.962l-1.692,1.15
			c1.286,1.557,2.504,2.233,4.399,2.233c1.218,0,2.978-0.339,4.805-1.896l0.067-0.202C446.463,26.725,445.042,26.927,443.823,26.927
			z M444.974,38.568h-4.398l-1.015,1.421h3.992v13.128l1.421-1.015V38.568z M461.351,56.906l-6.226-4.872l-1.286,1.421l-0.541-0.542
			l1.488-1.624V27.604h-3.925l-0.135-0.135l2.368-3.52h1.691v-4.533l7.174-7.647l0.136,0.136v12.045h5.413l0.136,0.136l-2.369,3.519
			h-3.18v20.505l3.722,2.843l1.421-1.557l0.541,0.541L461.351,56.906z M456.952,18.265l-1.421,1.557v4.128h1.421V18.265z
			 M456.952,50.613V27.604h-1.421v23.821l5.752,4.467l1.015-1.083L456.952,50.613z"/>
	</g>
</g>
<g id="Layer_1_1_">
</g>
</svg>
